# xmcd
#
# Track frame offsets:
#	150
#	14008
#	32160
#	44827
#	60336
#	94814
#	108018
#	124674
#	137927
#	150999
#	160263
#	185839
#	201550
#	213639
#	225401
#	239173
#	253916
#	265580
#	290288
#	304512
#	318531
#	333545
#	345459
#
# Disc length: 4757 seconds
#
# Revision: 1
# Processed by: cddbd v1.5.2PL0 Copyright (c) Steve Scherf et al.
# Submitted via: audiograbber 1.83.01
#
DISCID=5a129317
DTITLE=Canned Heat - Uncanned - Disc 2
DYEAR=1900
DGENRE=Blues
TTITLE0=Evil Woman
TTITLE1=Amphetamine Annie
TTITLE2=An Owl Song
TTITLE3=Terraplane Blues (alt take)
TTITLE4=Christmas Blues (alt take)
TTITLE5=Going Up The Country
TTITLE6=Time Was
TTITLE7=Low Down (And High Up)
TTITLE8=Same All Over
TTITLE9=Big Fat (The Fat Man)
TTITLE10=It's All Right
TTITLE11=Poor Moon
TTITLE12=Sugar Bee
TTITLE13=Shake It And Break It
TTITLE14=Future Blues
TTITLE15=Let's Work Together (Let's Stick Together)
TTITLE16=Wooly Bully
TTITLE17=Human Condition
TTITLE18=Long Way From L.A.
TTITLE19=Hill's Stomp
TTITLE20=Rockin' With The King
TTITLE21=Harley Davidson Blues
TTITLE22=Rock 'n' Roll Music
EXTD=
EXTT0=
EXTT1=
EXTT2=
EXTT3=
EXTT4=
EXTT5=
EXTT6=
EXTT7=
EXTT8=
EXTT9=
EXTT10=
EXTT11=
EXTT12=
EXTT13=
EXTT14=
EXTT15=
EXTT16=
EXTT17=
EXTT18=
EXTT19=
EXTT20=
EXTT21=
EXTT22=
PLAYORDER=
